<svg version="1" xmlns="http://www.w3.org/2000/svg" width="548" height="548" viewBox="0 0 411.000000 411.000000"><path d="M195 6.7c-12.4 5-48.6 22.9-65.3 32.2-16.4 9.1-56.1 33.5-68.2 41.8-12.8 8.9-32.3 23.7-32.9 25-.3.7-1.2 6.1-2 12-5.3 37-5.9 135.5-1.1 171.5 2.3 17.5 2.3 17.5 14.4 27.1 16.2 12.8 23.2 17.6 50.5 34.1 36.2 22 69.8 39.7 104.3 54.9l10.3 4.6 12.2-5.5c21.7-9.8 60.5-29.3 63.8-32.1 5.9-4.9 6-5.5 6-47.8 0-32-.2-38.5-1.4-38.5-.7 0-4.7 1.5-8.7 3.3-8.6 3.9-17.8 7.1-18.5 6.4-.7-.7 6.2-21.7 11.3-34.1 7.6-18.7 21.2-43.8 30-55.4l2.4-3.2 5.2 2.7c8.3 4.5 30.4 27.7 37 39 1.2 1.9-5 8.1-14.7 14.5l-8.9 6.1.5 36.6c.3 20.1.3 39.2-.1 42.3-.7 5.6-.7 5.7 1.3 4.5 1.2-.7 6.1-3.8 11.1-6.8 11.3-6.8 23.5-15.3 36.4-25.5 11-8.7 11.9-10.1 14-23.4 4.6-28.6 4.6-130.9.1-171-1.8-15.4-2.2-16.2-11.9-23.8-19.8-15.6-59.6-41.2-93.2-60-26-14.5-63.7-32.3-73.4-34.5-1.1-.3-5.8 1.1-10.5 3zm34.6 29.7C286.4 64.7 352 105.5 352 112.5c0 2.1-64.6 44.2-88.5 57.7-12.5 7.1-29.9 15.6-43 21.2-17.7 7.4-18.5 7.4-42.2-4.3-10.3-5.1-23.1-11.7-28.5-14.7-5.3-3-10.2-5.4-11-5.4-3 0-5.7 4.4-6.7 11-.6 3.7-1.1 21-1 40v33.5l7 5c3.8 2.7 9 7.1 11.6 9.7l4.6 4.7-5.9 8.1c-6.1 8.5-23.9 26.4-31.1 31.3-2.9 2-4.8 2.7-6.3 2.2-4.3-1.4-17.7-25-29-51-8.2-19-13.1-31.5-13.9-36.2-.8-4.2-.8-4.3 1.8-4.3 1.4 0 7.6 2.2 13.6 4.9 7.5 3.3 11.2 4.5 11.7 3.7.4-.6.8-10.8.8-22.6.1-27.1 1.4-48.9 3-52.1.7-1.3 2.5-3.8 4.1-5.4l2.9-3.1-3.3-1.8c-7.6-4.4-43.4-28.6-45.2-30.5-1.2-1.4-1.5-2.5-.9-2.9.6-.4 7.1-5 14.5-10.3 33.2-23.7 57.4-38.9 84.4-53 16.5-8.5 47.7-22.8 50.1-22.9.5 0 11.3 5.1 24 11.4z"/></svg>