<?xml version="1.0" standalone="no"?>
<!DOCTYPE svg PUBLIC "-//W3C//DTD SVG 20010904//EN"
 "http://www.w3.org/TR/2001/REC-SVG-20010904/DTD/svg10.dtd">
<svg version="1.0" xmlns="http://www.w3.org/2000/svg"
 width="385.000000pt" height="411.000000pt" viewBox="0 0 385.000000 411.000000"
 preserveAspectRatio="xMidYMid meet">
<metadata>
Created by potrace 1.15, written by Peter Selinger 2001-2017
</metadata>
<g transform="translate(0.000000,411.000000) scale(0.100000,-0.100000)"
fill="#000000" stroke="none">
<path d="M1755 4021 c-298 -131 -572 -278 -930 -499 -383 -237 -680 -450 -689
-495 -30 -144 -45 -502 -46 -1022 0 -530 22 -896 57 -953 17 -28 230 -198 343
-274 121 -81 544 -334 685 -411 240 -130 714 -357 745 -357 46 0 744 347 785
390 16 16 31 47 36 72 4 24 8 211 9 416 0 427 9 397 -98 343 -72 -36 -181 -76
-188 -68 -18 18 124 390 215 562 62 118 155 271 195 320 l24 29 58 -38 c33
-21 95 -75 139 -120 80 -81 215 -246 215 -263 0 -16 -72 -79 -153 -135 l-78
-53 0 -385 c0 -212 -4 -406 -8 -432 -4 -26 -5 -46 -2 -44 134 80 265 162 331
209 119 84 278 214 294 240 34 56 56 425 56 952 -1 520 -16 878 -46 1022 -5
25 -121 119 -309 250 -149 104 -577 370 -740 460 -297 164 -684 344 -739 342
-17 0 -89 -26 -161 -58z m390 -269 c322 -159 729 -391 985 -563 148 -99 250
-184 250 -207 0 -22 -650 -442 -909 -587 -137 -76 -300 -152 -440 -205 -110
-41 -116 -42 -170 -31 -59 12 -297 126 -484 232 -119 67 -145 71 -171 21 -25
-48 -36 -210 -36 -521 l0 -299 29 -19 c27 -17 80 -61 170 -140 l36 -31 -40
-59 c-82 -119 -328 -353 -373 -353 -40 0 -156 207 -299 535 -81 185 -146 355
-139 362 3 3 64 -18 136 -47 72 -29 134 -50 138 -46 4 4 10 166 13 359 5 328
7 355 26 399 12 25 33 54 47 63 14 10 26 21 26 24 0 4 -76 56 -168 115 -187
120 -327 221 -327 236 0 18 483 349 700 480 147 89 429 235 595 308 119 53
152 65 195 71 6 0 100 -43 210 -97z"/>
</g>
</svg>
